<?xml version="1.0" encoding="UTF-8"?>
<svg xmlns="http://www.w3.org/2000/svg" xmlns:xlink="http://www.w3.org/1999/xlink" viewBox="0 0 48 48" width="48px" height="48px">
<defs>
<linearGradient id="linear0" gradientUnits="userSpaceOnUse" x1="25.699671" y1="25.699671" x2="146.300323" y2="146.300323" gradientTransform="matrix(0.362791,0,0,0.362791,-7.2,-7.2)">
<stop offset="0" style="stop-color:rgb(29.803923%,29.803923%,29.803923%);stop-opacity:1;"/>
<stop offset="1" style="stop-color:rgb(20.392157%,20.392157%,20.392157%);stop-opacity:1;"/>
</linearGradient>
<linearGradient id="linear1" gradientUnits="userSpaceOnUse" x1="29.627001" y1="128.770676" x2="105.812248" y2="64.844002" gradientTransform="matrix(0.362791,0,0,0.362791,-7.2,-7.2)">
<stop offset="0.18" style="stop-color:rgb(80.000001%,96.078432%,68.235296%);stop-opacity:1;"/>
<stop offset="0.387" style="stop-color:rgb(36.078432%,91.764706%,47.450981%);stop-opacity:1;"/>
<stop offset="0.668" style="stop-color:rgb(15.686275%,67.058825%,86.274511%);stop-opacity:1;"/>
<stop offset="0.841" style="stop-color:rgb(0%,38.039216%,79.607844%);stop-opacity:1;"/>
</linearGradient>
<linearGradient id="linear2" gradientUnits="userSpaceOnUse" x1="64.134499" y1="111.015251" x2="111.352081" y2="71.394333" gradientTransform="matrix(0.362791,0,0,0.362791,-7.2,-7.2)">
<stop offset="0" style="stop-color:rgb(100%,80.000001%,55.29412%);stop-opacity:1;"/>
<stop offset="0.493" style="stop-color:rgb(100%,30.19608%,66.666669%);stop-opacity:1;"/>
<stop offset="1" style="stop-color:rgb(55.29412%,0.392157%,2.352941%);stop-opacity:1;"/>
</linearGradient>
<radialGradient id="radial0" gradientUnits="userSpaceOnUse" cx="39.262581" cy="137.334824" fx="39.262581" fy="137.334824" r="69.810501" gradientTransform="matrix(0.362791,0,0,0.362791,-7.2,-7.2)">
<stop offset="0" style="stop-color:rgb(100%,89.411765%,26.666668%);stop-opacity:1;"/>
<stop offset="0.145" style="stop-color:rgb(100%,88.235295%,25.882354%);stop-opacity:1;"/>
<stop offset="0.266" style="stop-color:rgb(100%,83.92157%,24.313726%);stop-opacity:1;"/>
<stop offset="0.378" style="stop-color:rgb(100%,77.254903%,20.784314%);stop-opacity:1;"/>
<stop offset="0.485" style="stop-color:rgb(99.607843%,67.843139%,16.470589%);stop-opacity:1;"/>
<stop offset="0.588" style="stop-color:rgb(99.607843%,55.29412%,10.588235%);stop-opacity:1;"/>
<stop offset="0.688" style="stop-color:rgb(99.215686%,40.392157%,3.529412%);stop-opacity:1;"/>
<stop offset="0.722" style="stop-color:rgb(99.215686%,34.509805%,0.784314%);stop-opacity:1;"/>
</radialGradient>
<linearGradient id="linear3" gradientUnits="userSpaceOnUse" x1="89.472252" y1="61.038502" x2="127.158173" y2="65.664581" gradientTransform="matrix(0.362791,0,0,0.362791,-7.2,-7.2)">
<stop offset="0.106" style="stop-color:rgb(20.784314%,60.784316%,91.37255%);stop-opacity:1;"/>
<stop offset="0.484" style="stop-color:rgb(44.705883%,36.862746%,81.176472%);stop-opacity:1;"/>
<stop offset="0.603" style="stop-color:rgb(42.745098%,34.901962%,79.607844%);stop-opacity:1;"/>
<stop offset="0.736" style="stop-color:rgb(37.64706%,29.803923%,74.509805%);stop-opacity:1;"/>
<stop offset="0.876" style="stop-color:rgb(29.019609%,20.784314%,66.274512%);stop-opacity:1;"/>
<stop offset="1" style="stop-color:rgb(18.82353%,10.588235%,56.862748%);stop-opacity:1;"/>
</linearGradient>
<linearGradient id="linear4" gradientUnits="userSpaceOnUse" x1="35.833328" y1="85.552078" x2="135.847748" y2="85.552078" gradientTransform="matrix(0.362791,0,0,0.362791,-7.2,-7.2)">
<stop offset="0" style="stop-color:rgb(100%,97.647059%,89.803922%);stop-opacity:1;"/>
<stop offset="0.302" style="stop-color:rgb(98.431373%,87.058824%,72.941178%);stop-opacity:1;"/>
<stop offset="0.698" style="stop-color:rgb(83.92157%,28.235295%,85.882354%);stop-opacity:1;"/>
<stop offset="1" style="stop-color:rgb(49.411765%,30.588236%,89.019608%);stop-opacity:1;"/>
</linearGradient>
</defs>
<g id="surface128958641">
<path style=" stroke:none;fill-rule:nonzero;fill:url(#linear0);" d="M 42.199219 47.398438 L 5.800781 47.398438 C 2.929688 47.398438 0.601562 45.070312 0.601562 42.199219 L 0.601562 5.800781 C 0.601562 2.929688 2.929688 0.601562 5.800781 0.601562 L 42.199219 0.601562 C 45.070312 0.601562 47.398438 2.929688 47.398438 5.800781 L 47.398438 42.199219 C 47.398438 45.070312 45.070312 47.398438 42.199219 47.398438 Z M 42.199219 47.398438 "/>
<path style=" stroke:none;fill-rule:nonzero;fill:url(#linear1);" d="M 24.066406 28.289062 C 14.914062 31.253906 9.933594 31.5 6.019531 41.628906 C 5.941406 41.808594 5.878906 42.003906 5.800781 42.199219 C 5.800781 41.953125 5.800781 41.707031 5.8125 41.460938 C 5.902344 35.882812 7.335938 24.144531 24.648438 20.101562 C 26.171875 19.734375 27.5625 19.332031 28.824219 18.890625 C 40.238281 14.898438 25.15625 27.9375 24.066406 28.289062 Z M 24.066406 28.289062 "/>
<path style=" stroke:none;fill-rule:nonzero;fill:url(#linear2);" d="M 36.699219 22.425781 C 36.675781 22.453125 36.648438 22.492188 36.621094 22.519531 C 34.648438 24.53125 32.019531 26.40625 28.550781 27.898438 C 28.199219 28.054688 27.859375 28.1875 27.523438 28.328125 C 26.300781 28.824219 25.15625 29.238281 24.066406 29.589844 C 14.914062 32.554688 9.933594 31.5 6.019531 41.628906 C 5.941406 41.808594 5.878906 42.003906 5.800781 42.199219 C 5.824219 41.992188 5.851562 41.769531 5.890625 41.523438 C 5.941406 41.171875 6.007812 40.78125 6.097656 40.367188 C 6.097656 40.355469 6.097656 40.328125 6.113281 40.300781 C 6.851562 36.519531 8.894531 30.628906 14.898438 27.898438 C 18.539062 26.25 29.1875 23.53125 36.699219 22.425781 Z M 36.699219 22.425781 "/>
<path style=" stroke:none;fill-rule:nonzero;fill:url(#radial0);" d="M 24.066406 29.589844 C 14.914062 32.554688 9.714844 32.074219 5.800781 42.199219 L 5.890625 41.523438 L 5.8125 41.460938 C 5.902344 41.121094 5.996094 40.757812 6.097656 40.367188 C 6.097656 40.355469 6.097656 40.328125 6.113281 40.300781 C 7.21875 36.363281 10.40625 30.730469 17.890625 29.589844 C 20.078125 29.257812 24.945312 28.941406 28.050781 28.113281 C 28.050781 28.113281 25.851562 29.023438 24.066406 29.589844 Z M 24.066406 29.589844 "/>
<path style=" stroke:none;fill-rule:nonzero;fill:url(#linear3);" d="M 40.742188 16.226562 C 37.675781 18.566406 30.121094 22.675781 16.199219 25.300781 C 17.191406 24.679688 18.273438 23.976562 20.152344 23.195312 C 22.65625 22.152344 25.648438 20.824219 28.824219 18.890625 C 40.238281 14.898438 41.550781 7.816406 41.550781 5.476562 C 42.226562 7.476562 42.550781 11.726562 40.742188 16.226562 Z M 40.742188 16.226562 "/>
<path style=" stroke:none;fill-rule:nonzero;fill:url(#linear4);" d="M 36.621094 22.519531 C 34.53125 23.792969 31.421875 25.222656 26.09375 26.234375 C 25.429688 26.367188 24.726562 26.484375 24 26.601562 C 18.773438 27.40625 14.042969 28.953125 10.585938 32.632812 C 10.089844 33.152344 9.636719 33.722656 9.191406 34.335938 C 7.722656 36.375 6.566406 38.949219 5.800781 42.199219 C 5.800781 41.953125 5.800781 41.707031 5.8125 41.460938 C 5.996094 36.039062 8.296875 29.8125 15.328125 25.519531 C 17.371094 24.273438 19.800781 23.195312 22.699219 22.347656 C 23.921875 21.984375 25.210938 21.671875 26.601562 21.398438 C 33.007812 20.140625 36.699219 17.773438 38.808594 15.210938 C 42.160156 11.167969 41.550781 6.671875 41.550781 5.476562 C 42.539062 8.425781 42.773438 16.226562 36.621094 22.519531 Z M 36.621094 22.519531 "/>
</g>
</svg>
